<?xml version="1.0" encoding="utf-8"?>
<!-- Generator: Adobe Illustrator 21.0.2, SVG Export Plug-In . SVG Version: 6.00 Build 0)  -->
<svg version="1.1" id="Layer_1" xmlns="http://www.w3.org/2000/svg" xmlns:xlink="http://www.w3.org/1999/xlink" x="0px" y="0px"
	 viewBox="0 0 85 85" style="enable-background:new 0 0 85 85;" xml:space="preserve">
<style type="text/css">
	.st0{fill:#FFFFFF;}
</style>
<circle class="st0" cx="42.5" cy="42.5" r="42.5"/>
<g>
	<polygon points="52.8,54 19.6,54 29.5,52.6 52.8,52.6 	"/>
	<path d="M21.3,53c1.4-0.1,1.9-0.4,1.9-0.9V27.9c0-0.4-0.3-0.6-2.3-0.7L19.7,27l-0.1-0.9h14.8L34.2,27l-1.9,0.3
		c-1.1,0.1-1.9,0.3-1.9,0.9V53c5.1,0.4,10.4-0.3,15.7,0.1l0.4,1l-3.6,0.1H19.6l0.1-1L21.3,53z"/>
	<path d="M40.6,53.1c1.4-0.3,1.9,0.4,1.9,0.1V27.9c0-0.3-0.3-0.4-2.3-0.7L39.1,27l-0.1-0.9h12.8c8.7,0,12.4,1.7,12.4,6.4
		c0,3.4-3.3,5.4-7.8,6.1v0.1c5.3,0.4,9.1,3,9.1,7.3c0,4.8-3.7,8-13,8H38.9l0.1-0.7L40.6,53.1z M57,33c0-3.8-2.7-5.7-6.3-5.7h-0.3
		c-0.1,0-0.3,0-0.4,0v11.5h0.7C54,38.9,57,37,57,33z M57.9,46.3c0-4.3-3.3-6.6-7.1-6.6c-0.3,0-0.7,0-0.9,0v13.1l2.3-0.4
		C55.5,52.3,57.9,50.1,57.9,46.3z"/>
	<g>
		<path d="M49.1,28.9l0.7,23.7c0,5.3-6.3,12.3-12,12.3c-3.1,0-5.3-1.6-5.3-3.8c0-1.7,1.4-3.1,3.3-3.1c2.8,0,4.4,3.1,2.7,6
			c2.9-0.3,4-4.3,4-9.5l0.3-25.4"/>
	</g>
</g>
</svg>
